<?xml version="1.0" standalone="no"?><svg xmlns="http://www.w3.org/2000/svg" viewBox="0 0 1440 320"><path fill="#0099ff" fill-opacity="1" d="M0,32L0,192L36.9,192L36.9,96L73.8,96L73.8,320L110.8,320L110.8,256L147.7,256L147.7,256L184.6,256L184.6,192L221.5,192L221.5,192L258.5,192L258.5,128L295.4,128L295.4,192L332.3,192L332.3,160L369.2,160L369.2,96L406.2,96L406.2,160L443.1,160L443.1,32L480,32L480,64L516.9,64L516.9,96L553.8,96L553.8,64L590.8,64L590.8,32L627.7,32L627.7,224L664.6,224L664.6,192L701.5,192L701.5,64L738.5,64L738.5,256L775.4,256L775.4,96L812.3,96L812.3,128L849.2,128L849.2,192L886.2,192L886.2,160L923.1,160L923.1,128L960,128L960,128L996.9,128L996.9,160L1033.8,160L1033.8,224L1070.8,224L1070.8,160L1107.7,160L1107.7,64L1144.6,64L1144.6,288L1181.5,288L1181.5,32L1218.5,32L1218.5,96L1255.4,96L1255.4,96L1292.3,96L1292.3,128L1329.2,128L1329.2,96L1366.2,96L1366.2,256L1403.1,256L1403.1,96L1440,96L1440,320L1403.1,320L1403.1,320L1366.2,320L1366.2,320L1329.2,320L1329.2,320L1292.3,320L1292.3,320L1255.4,320L1255.4,320L1218.5,320L1218.5,320L1181.5,320L1181.5,320L1144.6,320L1144.6,320L1107.7,320L1107.7,320L1070.8,320L1070.8,320L1033.8,320L1033.8,320L996.9,320L996.9,320L960,320L960,320L923.1,320L923.1,320L886.2,320L886.2,320L849.2,320L849.2,320L812.3,320L812.3,320L775.4,320L775.4,320L738.5,320L738.5,320L701.5,320L701.5,320L664.6,320L664.6,320L627.7,320L627.7,320L590.8,320L590.8,320L553.8,320L553.8,320L516.9,320L516.9,320L480,320L480,320L443.1,320L443.1,320L406.2,320L406.2,320L369.2,320L369.2,320L332.3,320L332.3,320L295.4,320L295.4,320L258.5,320L258.5,320L221.5,320L221.5,320L184.6,320L184.6,320L147.7,320L147.7,320L110.8,320L110.8,320L73.8,320L73.8,320L36.9,320L36.9,320L0,320L0,320Z"></path></svg>